<?xml version="1.0" standalone="no"?><!DOCTYPE svg PUBLIC "-//W3C//DTD SVG 1.1//EN" "http://www.w3.org/Graphics/SVG/1.1/DTD/svg11.dtd"><svg t="1760933193545" class="icon" viewBox="0 0 1024 1024" version="1.1" xmlns="http://www.w3.org/2000/svg" p-id="3467" xmlns:xlink="http://www.w3.org/1999/xlink" width="200" height="200"><path d="M588.88263629 392.94908393c0-45.85069066-37.80670983-83.65740049-83.6574005-83.65740048s-83.65740049 37.80670983-83.65740047 83.65740048 37.80670983 83.65740049 83.65740047 83.65740048 83.65740049-37.80670983 83.6574005-83.65740048z" p-id="3468" fill="#1296db"></path><path d="M505.22523579 37.40513185c-262.23377461 0-474.59486815 212.36109354-474.59486812 474.59486815s212.36109354 474.59486815 474.59486812 474.59486815 474.59486815-212.36109354 474.59486816-474.59486815-212.36109354-474.59486815-474.59486816-474.59486815z m112.61573144 585.6018034c23.32754437 0 41.82870022 18.50115588 41.82870023 41.82870025s-18.50115588 41.82870022-41.82870023 41.82870024h-70.78703119v53.0902734c0 23.32754437-18.50115588 41.82870022-41.82870025 41.82870023s-41.82870022-18.50115588-41.82870023-41.82870023v-94.11457554-0.8043981-110.20253716c-71.59142927-18.50115588-125.48610073-83.65740049-125.48610073-161.68401441 0-92.50577938 74.8090216-167.31480097 167.31480096-167.31480098s167.31480097 74.8090216 167.31480099 167.31480098c0 78.0266139-53.0902734 143.18285852-125.48610074 161.68401441v68.37383691h70.78703119z" p-id="3469" fill="#1296db"></path></svg>